<svg enable-background="new 0 0 512 512" version="1.1" viewBox="0 0 512 512" xmlns="http://www.w3.org/2000/svg">
 <g fill="#0f1319">
  <path d="m162.77 488.88c-8.509 0-15.41-6.901-15.41-15.41v-163.53c0-8.509 6.901-15.41 15.41-15.41s15.41 6.901 15.41 15.41v163.53c0 8.509-6.901 15.41-15.41 15.41z"/>
  <path d="m349.23 488.88c-8.509 0-15.41-6.901-15.41-15.41v-163.53c0-8.509 6.901-15.41 15.41-15.41s15.41 6.901 15.41 15.41v163.53c0 8.509-6.901 15.41-15.41 15.41z"/>
  <path d="m55.875 23.117c-30.809-1e-6 -55.875 25.064-55.875 55.875v64.52 289.5c0 30.811 25.066 55.877 55.875 55.877h400.25c23.107 0 42.983-14.1 51.477-34.148 2.8313-6.6827 4.3984-14.026 4.3984-21.729v-289.5-64.52c0-30.811-25.066-55.875-55.875-55.875h-400.25zm0 30.82h400.25c13.815 0 25.055 11.239 25.055 25.055v64.52 289.5c0 13.816-11.24 25.057-25.055 25.057h-400.25c-13.815 0-25.055-11.241-25.055-25.057v-289.5-64.52c0-13.816 11.24-25.055 25.055-25.055z"/>
 </g>
 <g>
  <path d="m178.95 314.56h-32.361c-16.596 0-30.049-13.453-30.049-30.049v-245.99h92.459v245.99c0 16.596-13.453 30.051-30.049 30.051z" fill="#b06177"/>
  <path d="m178.95 329.97h-32.361c-25.067 0-45.459-20.392-45.459-45.459v-245.99c0-8.509 6.901-15.41 15.41-15.41h92.459c8.509 0 15.41 6.901 15.41 15.41v245.99c0 25.066-20.392 45.46-45.459 45.46zm-47.001-276.04v230.58c0 8.072 6.568 14.639 14.639 14.639h32.361c8.072 0 14.639-6.568 14.639-14.639v-230.58h-61.639z" fill="#0f1319"/>
  <path d="m365.41 314.56h-32.361c-16.596 0-30.049-13.453-30.049-30.049v-245.99h92.459v245.99c1e-3 16.596-13.454 30.051-30.049 30.051z" fill="#b06177"/>
  <path d="m365.41 329.97h-32.361c-25.067 0-45.459-20.392-45.459-45.459v-245.99c0-8.509 6.901-15.41 15.41-15.41h92.459c8.509 0 15.41 6.901 15.41 15.41v245.99c1e-3 25.066-20.391 45.46-45.459 45.46zm-47-276.04v230.58c0 8.072 6.568 14.639 14.639 14.639h32.361c8.072 0 14.639-6.568 14.639-14.639v-230.58h-61.639z" fill="#0f1319"/>
 </g>
</svg>
